# xmcd CD database file
#
# Track frame offsets:
#	150
#	20046
#	42140
#	65197
#	81854
#	99738
#	115349
#	137468
#	159142
#	181665
#	201259
#	219446
#	242533
#	260582
#
# Disc length: 3683 seconds
#
# Revision: 2
# Processed by: cddbd v1.5.2PL0 Copyright (c) Steve Scherf et al.
# Submitted via: CDex 2.21
#
DISCID=be0e610e
DTITLE=Fair Warning - Sundancer
DYEAR=2013
DGENRE=Metal
TTITLE0=Troubled Love
TTITLE1=Keep it in the Dark
TTITLE2=Real Love
TTITLE3=Hit and Run
TTITLE4=Man in the Mirror
TTITLE5=Natural High
TTITLE6=Jealous Heart
TTITLE7=Touch My Soul
TTITLE8=Send Me A Dream
TTITLE9=Pride
TTITLE10=Get Real
TTITLE11=How Does It Feel
TTITLE12=Living on the Streets
TTITLE13=Cool
EXTD=YEAR: 2013
EXTT0=
EXTT1=
EXTT2=
EXTT3=
EXTT4=
EXTT5=
EXTT6=
EXTT7=
EXTT8=
EXTT9=
EXTT10=
EXTT11=
EXTT12=
EXTT13=
PLAYORDER=
